<svg xmlns="http://www.w3.org/2000/svg" xmlns:xlink="http://www.w3.org/1999/xlink" version="1.1" id="Layer_1" x="0px" y="0px" width="100%" height="100%" viewBox="0 0 166.7 20.1" enable-background="new 0 0 166.7 20.1" xml:space="preserve" preserveAspectRatio="none" style="position: absolute;">
<g id="svg0" fill="#5e5e5e" data-darkreader-inline-fill="" style="--darkreader-inline-fill:#474d50;">
	<path d="M152,7.1c0-0.8,0.7-1.5,1.5-1.5l0,0c0.8,0,1.5,0.7,1.5,1.5l0,0c0,0.8-0.7,1.5-1.5,1.5l0,0   C152.7,8.6,152,7.9,152,7.1z M144,7.1c0-0.8,0.7-1.5,1.5-1.5l0,0c0.8,0,1.5,0.7,1.5,1.5l0,0c0,0.8-0.7,1.5-1.5,1.5l0,0   C144.7,8.6,144,7.9,144,7.1z M136,7.1c0-0.8,0.7-1.5,1.5-1.5l0,0c0.8,0,1.5,0.7,1.5,1.5l0,0c0,0.8-0.7,1.5-1.5,1.5l0,0   C136.7,8.6,136,7.9,136,7.1z M128,7.1c0-0.8,0.7-1.5,1.5-1.5l0,0c0.8,0,1.5,0.7,1.5,1.5l0,0c0,0.8-0.7,1.5-1.5,1.5l0,0   C128.7,8.6,128,7.9,128,7.1z M120,7.1c0-0.8,0.7-1.5,1.5-1.5l0,0c0.8,0,1.5,0.7,1.5,1.5l0,0c0,0.8-0.7,1.5-1.5,1.5l0,0   C120.7,8.6,120,7.9,120,7.1z M112,7.1c0-0.8,0.7-1.5,1.5-1.5l0,0c0.8,0,1.5,0.7,1.5,1.5l0,0c0,0.8-0.7,1.5-1.5,1.5l0,0   C112.7,8.6,112,7.9,112,7.1z M48,7.1c0-0.8,0.7-1.5,1.5-1.5l0,0c0.8,0,1.5,0.7,1.5,1.5l0,0c0,0.8-0.7,1.5-1.5,1.5l0,0   C48.7,8.6,48,7.9,48,7.1z M40,7.1c0-0.8,0.7-1.5,1.5-1.5l0,0c0.8,0,1.5,0.7,1.5,1.5l0,0c0,0.8-0.7,1.5-1.5,1.5l0,0   C40.7,8.6,40,7.9,40,7.1z M32,7.1c0-0.8,0.7-1.5,1.5-1.5l0,0c0.8,0,1.5,0.7,1.5,1.5l0,0c0,0.8-0.7,1.5-1.5,1.5l0,0   C32.7,8.6,32,7.9,32,7.1z M24,7.1c0-0.8,0.7-1.5,1.5-1.5l0,0c0.8,0,1.5,0.7,1.5,1.5l0,0c0,0.8-0.7,1.5-1.5,1.5l0,0   C24.7,8.6,24,7.9,24,7.1z M16,7.1c0-0.8,0.7-1.5,1.5-1.5l0,0c0.8,0,1.5,0.7,1.5,1.5l0,0c0,0.8-0.7,1.5-1.5,1.5l0,0   C16.7,8.6,16,7.9,16,7.1z M8,7.1c0-0.8,0.7-1.5,1.5-1.5l0,0c0.8,0,1.5,0.7,1.5,1.5l0,0c0,0.8-0.7,1.5-1.5,1.5l0,0   C8.7,8.6,8,7.9,8,7.1z M0,7.1c0-0.8,0.7-1.5,1.5-1.5l0,0C2.3,5.6,3,6.3,3,7.1l0,0c0,0.8-0.7,1.5-1.5,1.5l0,0C0.7,8.6,0,7.9,0,7.1z"></path>
	<path d="M166.7,7.1c-3.4,1.3-7.6,3.4-10.3,5.7l2.1-5.7l-2.1-5.7C159.1,3.7,163.3,5.8,166.7,7.1z"></path>
	<path d="M69.2,5.2l-3.4-4.8h-3.9c0.4,1.2,1,10.5,4.3,10.4l9.3-0.1L72.2,20c2,0,2.4-0.1,4.4-0.1   c5.4-3.3,10-6.7,14.3-11.6l1.5,0.1C92,9,91,10.2,90.6,10.6l5.6-0.1c1.5,0,6.3-1.3,6.3-2.9l0,0c0-1.5-4.8-2.7-6.4-2.7h-3.5L90,5   L76.7,5.1H75L69.2,5.2L69.2,5.2z"></path>
	<polygon points="76.6,4 75.6,0.1 80.6,0 89,3.9  "></polygon>
</g>
</svg>